<svg width="64" height="64" viewBox="0 0 34 32" fill="none" xmlns="http://www.w3.org/2000/svg">
<path d="M8.46352 0.0335702C8.64533 0.0327538 8.82714 0.0319374 9.01446 0.0310963C9.21346 0.0309182 9.41246 0.0307574 9.61146 0.0306119C9.82301 0.0299494 10.0345 0.0292309 10.2461 0.0284609C10.8188 0.0265925 11.3916 0.0256647 11.9644 0.0250281C12.3229 0.0246078 12.6815 0.0240207 13.04 0.0233833C14.164 0.0214302 15.2879 0.0200472 16.4119 0.0194942C17.7054 0.0188541 18.9989 0.0163469 20.2924 0.0122026C21.2949 0.00910313 22.2974 0.00766937 23.2999 0.00747871C23.8974 0.0073295 24.4949 0.00649839 25.0924 0.00393021C25.6551 0.00155858 26.2178 0.00127313 26.7805 0.00252037C26.9857 0.0026297 27.191 0.00202051 27.3962 0.00059622C29.3557 -0.0121921 30.9106 0.17025 32.3483 1.57328C33.3301 2.63258 33.6881 3.85426 33.6934 5.28023C33.6939 5.37246 33.6944 5.46469 33.695 5.55971C33.6965 5.86764 33.6971 6.17556 33.6976 6.4835C33.6985 6.70478 33.6995 6.92607 33.7005 7.14735C33.7035 7.87324 33.7049 8.59913 33.7063 9.32502C33.7069 9.57553 33.7075 9.82603 33.7081 10.0765C33.7108 11.254 33.7128 12.4314 33.714 13.6088C33.7154 14.9649 33.7191 16.3209 33.7249 17.6769C33.7292 18.727 33.7313 19.7771 33.7317 20.8271C33.7321 21.4534 33.7333 22.0796 33.7369 22.7058C33.7403 23.2957 33.7408 23.8856 33.7394 24.4755C33.7393 24.6908 33.7402 24.9062 33.7422 25.1215C33.7572 26.8676 33.5484 28.4228 32.3921 29.7957C31.3764 30.8097 30.2873 31.2562 28.8516 31.2587C28.7577 31.2593 28.6637 31.2598 28.5669 31.2604C28.2549 31.2619 27.9429 31.2613 27.6309 31.2607C27.4061 31.2613 27.1812 31.2621 26.9564 31.2629C26.3476 31.2649 25.7388 31.2649 25.1299 31.2646C24.6208 31.2644 24.1117 31.2651 23.6026 31.2658C22.401 31.2674 21.1994 31.2675 19.9978 31.2666C18.7602 31.2657 17.5226 31.2675 16.285 31.2705C15.2206 31.2731 14.1562 31.2739 13.0918 31.2734C12.4569 31.2732 11.822 31.2736 11.1871 31.2755C10.5898 31.2774 9.99251 31.2771 9.39519 31.2752C9.1767 31.2749 8.9582 31.2753 8.73971 31.2764C6.95027 31.2854 5.59331 31.0907 4.26234 29.7917C2.8618 28.1368 2.91919 26.2562 2.95388 24.1954C3.02363 22.9181 3.02363 22.9181 2.63379 21.7509C2.38231 21.5386 2.13075 21.3782 1.84701 21.2134C1.16525 20.4562 0.41899 19.58 0 18.64C0.0703286 18.4984 0.0703286 18.4984 0.142078 18.354C0.256362 18.458 0.256362 18.458 0.372955 18.564C3.01511 20.838 6.12365 21.3978 9.51923 21.2134C10.5641 21.1064 11.6067 20.931 12.6105 20.6181C13.0441 20.5056 13.2325 20.4777 13.6395 20.6416C12.0177 21.9126 10.1736 22.7964 8.09845 22.7861C8.10169 23.3671 8.11268 23.9477 8.12509 24.5286C8.12591 24.6931 8.12674 24.8576 8.12758 25.027C8.14503 25.9818 8.14503 25.9818 8.54966 26.8234C9.3921 27.3522 10.1242 27.1939 11.0377 26.982C11.1543 26.9564 11.2709 26.9308 11.391 26.9045C11.762 26.8229 12.1324 26.7393 12.5029 26.6553C12.8733 26.5721 13.2439 26.4894 13.6147 26.4077C13.8448 26.3569 14.0748 26.3052 14.3045 26.2525C14.8999 26.1204 15.4406 26.0464 16.0548 26.0745C16.0585 26.2363 16.0621 26.3981 16.0659 26.5648C16.0739 26.7767 16.0821 26.9885 16.0903 27.2004C16.0924 27.3071 16.0944 27.4138 16.0964 27.5237C16.1059 27.8718 16.1059 27.8718 16.1969 28.362C16.4144 28.5823 16.4144 28.5823 16.7652 28.648C17.1584 28.5776 17.5131 28.4925 17.8935 28.3782C18.0563 28.3315 18.0563 28.3315 18.2225 28.2839C18.4517 28.2177 18.6806 28.1505 18.9092 28.0823C19.259 27.9782 19.6096 27.878 19.9606 27.7781C20.1833 27.7133 20.4059 27.6482 20.6285 27.5829C20.7333 27.553 20.8381 27.523 20.9461 27.4922C21.6688 27.2989 21.6688 27.2989 22.1642 26.7893C22.2177 26.4134 22.2496 26.0672 22.2619 25.6902C22.2667 25.5899 22.2716 25.4895 22.2766 25.3862C22.2882 25.1391 22.2975 24.8919 22.3063 24.6448C22.4388 24.6159 22.5713 24.5871 22.7078 24.5574C23.2033 24.4496 23.6987 24.3413 24.1941 24.2329C24.4078 24.1862 24.6215 24.1396 24.8352 24.0931C25.1439 24.026 25.4525 23.9584 25.7611 23.8908C25.8554 23.8704 25.9497 23.85 26.0469 23.8289C26.316 23.7697 26.5844 23.7069 26.8527 23.644C27.0276 23.6064 27.2025 23.5689 27.3827 23.5302C27.9545 23.3183 28.1022 23.1679 28.4156 22.6432C28.4991 22.1715 28.4947 21.7064 28.4914 21.2284C28.4926 21.0865 28.4938 20.9446 28.4951 20.7984C28.4983 20.3296 28.4974 19.861 28.4961 19.3922C28.4968 19.0658 28.4977 18.7394 28.4987 18.413C28.5002 17.7288 28.4996 17.0446 28.4975 16.3604C28.4951 15.4849 28.4984 14.6096 28.5034 13.7341C28.5065 13.0599 28.5063 12.3857 28.5051 11.7114C28.505 11.3887 28.506 11.0661 28.5081 10.7434C28.5106 10.2913 28.5085 9.83947 28.5053 9.3874C28.5069 9.25493 28.5086 9.12247 28.5103 8.98599C28.4974 8.09516 28.3153 7.4409 27.7052 6.77331C27.369 6.57597 27.369 6.57597 26.9926 6.54577C26.8525 6.5242 26.7124 6.50263 26.568 6.48041C26.3397 6.45317 26.3397 6.45317 26.1068 6.42538C25.9452 6.4019 25.7835 6.37842 25.6169 6.35422C25.0822 6.27767 24.5468 6.20829 24.0112 6.13888C23.6384 6.08689 23.2656 6.03449 22.893 5.98142C22.2092 5.88453 21.5252 5.78943 20.8409 5.69641C19.5183 5.51641 18.1985 5.32052 16.879 5.11909C16.6796 5.08876 16.4802 5.05844 16.2808 5.02813C15.8903 4.96877 15.4998 4.90938 15.1094 4.84997C15.0146 4.83554 14.9197 4.82112 14.8221 4.80626C14.6317 4.77728 14.4413 4.74828 14.2509 4.71926C13.6235 4.62366 12.9958 4.52955 12.368 4.43606C12.2109 4.41201 12.0538 4.38795 11.8919 4.36316C10.2153 4.07444 10.2153 4.07444 8.66676 4.62874C8.25774 5.1828 8.1848 5.59105 8.17459 6.27459C8.16899 6.55318 8.16899 6.55318 8.16328 6.8374C8.16138 7.03943 8.15956 7.24146 8.15783 7.44349C8.15471 7.65279 8.15145 7.86208 8.14806 8.07137C8.14141 8.51026 8.1362 8.94914 8.13206 9.38806C8.12672 9.9455 8.1182 10.5028 8.1086 11.0602C8.10145 11.493 8.09586 11.9257 8.09072 12.3585C8.08814 12.5637 8.08514 12.7689 8.08169 12.974C7.96009 15.4755 7.96009 15.4755 8.95092 17.6392C10.2504 18.7305 11.9983 19.0094 13.6395 19.0689C13.6395 19.1632 13.6395 19.2576 13.6395 19.3548C13.3496 19.4479 13.0595 19.54 12.7693 19.6318C12.6077 19.6832 12.4462 19.7347 12.2798 19.7876C9.99292 20.4403 7.27008 20.2811 5.16975 19.1409C4.09965 18.4624 3.32539 17.7434 2.98364 16.4954C2.87558 15.5904 2.90703 14.6714 2.91315 13.7616C2.91313 13.4944 2.91292 13.2272 2.91253 12.96C2.91233 12.4016 2.91411 11.8432 2.91735 11.2847C2.92138 10.5721 2.921 9.85964 2.91919 9.14705C2.91819 8.5957 2.91931 8.04436 2.92107 7.493C2.92171 7.23042 2.92176 6.96783 2.9212 6.70524C2.91887 4.64808 3.03547 2.95566 4.49377 1.37558C5.63588 0.311614 6.93798 0.0376981 8.46352 0.0335702Z" fill="#4B0082"/>
<path d="M27.2791 8.77585C27.4348 9.32397 27.4651 9.5522 27.1903 10.0626C27.079 10.2041 26.9676 10.3457 26.8529 10.4915C26.6977 10.6919 26.6977 10.6919 26.5393 10.8964C26.127 11.3928 25.6496 11.773 25.1391 12.1625C25.0087 12.2638 25.0087 12.2638 24.8757 12.3672C24.186 12.9022 24.186 12.9022 23.8453 13.1097C23.5526 13.3343 23.5526 13.3343 23.5098 13.7096C23.5077 13.8498 23.5057 13.99 23.5035 14.1345C23.4996 14.2892 23.4956 14.4439 23.4916 14.6033C23.4902 14.7651 23.4888 14.9268 23.4874 15.0934C23.4814 15.4112 23.4749 15.729 23.468 16.0467C23.4631 16.273 23.4631 16.273 23.4582 16.5038C23.408 17.8998 23.408 17.8998 23.1145 18.3639C22.8747 18.4979 22.8747 18.4979 22.6 18.4918C22.3064 18.3549 22.3064 18.3549 22.0955 17.9495C22.0362 17.7825 21.9768 17.6155 21.9157 17.4435C21.8549 17.2773 21.7941 17.111 21.7314 16.9397C21.596 16.4963 21.596 16.4963 21.596 16.0674C20.5787 15.7262 20.0553 15.8185 19.1069 16.2824C18.9617 16.3529 18.8166 16.4234 18.667 16.496C18.5171 16.5698 18.3672 16.6437 18.2128 16.7197C18.0601 16.7941 17.9075 16.8684 17.7502 16.9451C17.3742 17.1283 16.9986 17.3124 16.6233 17.4971C16.6233 17.8274 16.6233 18.1576 16.6233 18.4979C16.3214 18.6051 16.3214 18.6051 15.9129 18.6409C15.6233 18.4587 15.3391 18.2676 15.0604 18.069C14.6728 17.9572 14.6728 17.9572 14.35 17.926C14.35 17.7845 14.35 17.6429 14.35 17.4971C14.2693 17.4711 14.1885 17.4451 14.1053 17.4184C13.4113 17.191 12.7431 16.9389 12.0768 16.6393C12.1706 16.4506 12.2643 16.2618 12.3609 16.0674C13.0173 16.0674 13.6737 16.0674 14.35 16.0674C14.139 15.4305 14.139 15.4305 13.9238 14.7807C14.0659 14.6377 14.0659 14.6377 14.5809 14.593C15.0549 14.5947 15.3347 14.6795 15.7353 14.9326C16.1483 15.2437 16.1483 15.2437 16.4768 15.1783C16.7928 15.056 17.0276 14.9044 17.2981 14.7002C17.4289 14.6026 17.4289 14.6026 17.5623 14.5031C17.6275 14.4531 17.6927 14.4032 17.7599 14.3517C16.7308 13.4063 15.0869 13.3252 13.7728 13.1097C13.5801 13.0773 13.3875 13.0448 13.1948 13.0122C12.7276 12.9336 12.2602 12.8559 11.7926 12.7791C11.8992 12.0999 11.8992 12.0999 12.2189 11.7783C12.5246 11.734 12.5246 11.734 12.9085 11.7218C13.0524 11.7166 13.1963 11.7113 13.3445 11.7059C13.501 11.7016 13.6576 11.6973 13.8189 11.6928C13.9806 11.6872 14.1423 11.6816 14.3088 11.6758C14.8287 11.658 15.3486 11.6421 15.8685 11.6263C17.0225 11.5889 18.1764 11.5496 19.3303 11.5069C19.6978 11.4941 20.0653 11.4842 20.4329 11.4751C21.4512 11.4356 22.0793 11.3902 22.8481 10.697C22.9226 10.6334 22.9971 10.5697 23.0738 10.5041C23.2959 10.3136 23.5119 10.1179 23.7272 9.91962C25.1397 8.64329 25.1397 8.64329 26.2552 8.615C26.6083 8.63513 26.9396 8.67336 27.2791 8.77585Z" fill="#FF6121"/>
</svg>
